<svg width="20" height="20" viewBox="0 0 20 20" fill="none" xmlns="http://www.w3.org/2000/svg">
<path d="M7.12786 3.822C7.17726 2.5535 8.0073 1.32327 9.25292 1.07838C9.49948 1.02991 9.74862 1 10 1C10.2514 1 10.5005 1.02991 10.7471 1.07838C11.9927 1.32327 12.8227 2.5535 12.8721 3.822C12.8767 3.93947 12.8813 4.05722 12.8859 4.17522C12.9051 4.66416 12.9243 5.15761 12.9424 5.65523C12.9701 6.41728 13.5827 7.02986 14.3448 7.05756C14.8424 7.07565 15.3359 7.09495 15.8249 7.11407C15.9428 7.11869 16.0606 7.12329 16.178 7.12786C17.4465 7.17726 18.6767 8.0073 18.9216 9.25292C18.9701 9.49948 19 9.74862 19 10C19 10.2514 18.9701 10.5005 18.9216 10.7471C18.6767 11.9927 17.4465 12.8227 16.178 12.8721C16.0605 12.8767 15.9428 12.8813 15.8248 12.8859C15.3358 12.9051 14.8424 12.9243 14.3448 12.9424C13.5827 12.9701 12.9701 13.5827 12.9424 14.3448C12.9243 14.8424 12.905 15.3359 12.8859 15.8249C12.8813 15.9428 12.8767 16.0606 12.8721 16.178C12.8227 17.4465 11.9927 18.6767 10.7471 18.9216C10.5005 18.9701 10.2514 19 10 19C9.74862 19 9.49948 18.9701 9.25292 18.9216C8.0073 18.6767 7.17726 17.4465 7.12786 16.178C7.12329 16.0606 7.11868 15.9428 7.11407 15.8249C7.09495 15.3359 7.07565 14.8424 7.05756 14.3448C7.02986 13.5827 6.41728 12.9701 5.65523 12.9424C5.15758 12.9243 4.6641 12.905 4.17514 12.8859C4.05716 12.8813 3.93945 12.8767 3.822 12.8721C2.5535 12.8227 1.32327 11.9927 1.07838 10.7471C1.02991 10.5005 1 10.2514 1 10C1 9.74862 1.02991 9.49948 1.07838 9.25292C1.32327 8.0073 2.5535 7.17726 3.822 7.12786C3.93945 7.12329 4.05716 7.11869 4.17514 7.11407C4.6641 7.09495 5.15758 7.07565 5.65523 7.05756C6.41728 7.02986 7.02986 6.41728 7.05756 5.65523C7.07565 5.15756 7.09495 4.66407 7.11407 4.1751C7.11869 4.05714 7.12329 3.93943 7.12786 3.822Z" fill="#D7E0FF" stroke="#4147D5" stroke-width="1.5" stroke-linejoin="round"/>
</svg>
