<svg width="29" height="29" viewBox="0 0 29 29" fill="none" xmlns="http://www.w3.org/2000/svg">
<path d="M1 7.46973H28" stroke="#FFFEFE" stroke-width="1.5" stroke-linecap="round"/>
<path d="M24.2 7.46967H4.79103L4.53472 12.1037C4.34666 15.5039 4.50645 18.9143 5.0116 22.282L5.48606 25.445C5.70634 26.9136 6.96788 28 8.45287 28H20.5381C22.0231 28 23.2847 26.9136 23.5049 25.445L23.9794 22.282C24.4846 18.9143 24.6443 15.5039 24.4563 12.1037L24.2 7.46967Z" fill="#031967" stroke="#FFFEFE" stroke-width="1.5" stroke-linecap="round" stroke-linejoin="round"/>
<path d="M9.10394 7.46965V6.39137C9.10394 4.96149 9.67196 3.59018 10.683 2.5791C11.6941 1.56802 13.0654 1 14.4953 1C15.9252 1 17.2965 1.56802 18.3076 2.5791C19.3187 3.59018 19.8867 4.96149 19.8867 6.39137V7.46965" fill="#031967"/>
<path d="M9.10394 7.46965V6.39137C9.10394 4.96149 9.67196 3.59018 10.683 2.5791C11.6941 1.56802 13.0654 1 14.4953 1C15.9252 1 17.2965 1.56802 18.3076 2.5791C19.3187 3.59018 19.8867 4.96149 19.8867 6.39137V7.46965" stroke="#FFFEFE" stroke-width="1.5" stroke-linecap="round" stroke-linejoin="round"/>
<path d="M11.2605 13.2443V22.1821" stroke="#FFFEFE" stroke-width="1.5" stroke-linecap="round" stroke-linejoin="round"/>
<path d="M17.7302 13.2443V22.1821" stroke="#FFFEFE" stroke-width="1.5" stroke-linecap="round" stroke-linejoin="round"/>
</svg>
